<?xml version="1.0" encoding="iso-8859-1"?>
<!-- Uploaded to: SVG Repo, www.svgrepo.com, Generator: SVG Repo Mixer Tools -->
<svg fill="#000000" height="800px" width="800px" version="1.1" id="Layer_1" xmlns="http://www.w3.org/2000/svg" xmlns:xlink="http://www.w3.org/1999/xlink" 
	 viewBox="0 0 512.002 512.002" xml:space="preserve">
<g>
	<g>
		<path d="M407.803,130.36l4.015-14.121c0.302-1.062,0.455-2.159,0.455-3.263v-43.67c0-6.589-5.341-11.929-11.929-11.929H102.111
			c-6.589,0-11.929,5.341-11.929,11.929v42.483c0,1.099,0.151,2.191,0.451,3.248l60.428,213.511h200.386l4.176-14.69h30.405
			c51.308,0,93.049-41.742,93.049-93.049C479.078,177.002,448.638,140.191,407.803,130.36z M386.03,278.071H365.8l32.204-113.252
			c25.844,5.522,45.286,28.524,45.286,55.991C443.291,252.384,417.605,278.071,386.03,278.071z"/>
	</g>
</g>
<g>
	<g>
		<path d="M498.257,363.833c-1.334-0.317-2.72-0.503-4.15-0.503H17.894c-1.432,0-2.817,0.186-4.15,0.503
			C5.866,365.709,0,372.773,0,381.224c0,9.882,8.012,17.894,17.894,17.894h52.901l7.829,14.754
			c13.306,25.075,39.371,40.753,67.758,40.753H365.62c28.387,0,54.453-15.677,67.758-40.753l7.829-14.754h52.901
			c9.882,0,17.894-8.012,17.894-17.894C512,372.773,506.134,365.709,498.257,363.833z"/>
	</g>
</g>
</svg>